<svg height="512" viewBox="0 0 54 56" width="512" xmlns="http://www.w3.org/2000/svg">
	<g id="Page-1" fill="white" fill-rule="evenodd">
		<g id="032---Dragon-Shield" fill="currentColor" fill-rule="nonzero">
			<path id="Shape" d="m3.512 26.806c.56733298 2.5018014.84383148 5.0607547.824 7.626.49894959-1.6347883.86678137-3.3067509 1.1-5 .26266457-1.9214221.34969107-3.8627827.26-5.8-.64983139 1.1097121-1.37976942 2.1705286-2.184 3.174z" />
			<path id="Shape" d="m6 35.776c1.53093689 3.3545824 2.67982096 6.8706708 3.425 10.482 1.2254302-4.8397326.33852201-9.9721685-2.44-14.12-.2613718 1.2298119-.59020198 2.4443136-.985 3.638z" />
			<path id="Shape" d="m27 28.194c1.235773-2.0257168 2.9779917-3.6945245 5.055-4.842-1.955-3.852-3.725-4.352-5.055-4.352s-3.1.5-5.055 4.352c2.0770083 1.1474755 3.819227 2.8162832 5.055 4.842z" />
			<path id="Shape" d="m27.439 53.478c-.2767417.1350251-.6002583.1350251-.877 0-5.6688059-2.6962099-10.6689139-6.6163765-14.64-11.478-.0027658.9467552-.0756317 1.8920062-.218 2.828 4.2907563 4.6946034 9.4960026 8.4624176 15.296 11.072 5.8008725-2.6024654 11.0077157-6.3646648 15.3-11.055-.1438223-.9368881-.2180255-1.8831454-.222-2.831-3.9565836 4.8724468-8.9601501 8.7908079-14.639 11.464z" />
			<path id="Shape" d="m17.858 7.813c1.9224653 3.2170234 5.394319 5.18682 9.142 5.18682s7.2195347-1.9697966 9.142-5.18682c-.5373333-.524-1.0153333-1.03333333-1.434-1.528-1.4804601 2.89404533-4.4572677 4.7149428-7.708 4.7149428s-6.2275399-1.82089747-7.708-4.7149428c-.42.49533333-.898 1.00466667-1.434 1.528z" />
			<path id="Shape" d="m18.488 25.223c.591387-.8572006 1.1313377-1.7487706 1.617-2.67.074-.148.152-.272.226-.414-1.3981727-1.3273439-2.5271359-2.9119668-3.325-4.667-.463 2.338-.6 5.586 1.2 8.181z" />
			<path id="Shape" d="m14.375 8.22c2.2563594-1.65187198 4.1062655-3.79658662 5.409-6.271.1666962-.35209995.1137423-.76895655-.1356943-1.06819456s-.6499463-.42638165-1.0263057-.32580544c-3.358.926-8.588 3.4-12.778 9.982-4.128 6.486-4.68 10.471-5.124 13.673-.12896377 1.1047655-.32600518 2.2005162-.59 3.281 2.08472271-1.9750122 3.77327466-4.3298209 4.975-6.938 4.095-8.196 5.719-9.492 9.27-12.333z" />
			<path id="Shape" d="m49.663 34.4c-.0164919-2.5529112.2603224-5.0992677.825-7.589-.8069679-1.0062852-1.5389369-2.0704813-2.19-3.184-.1549742 3.6422479.3065202 7.2845035 1.365 10.773z" />
			<path id="Shape" d="m33.669 22.139c.074.142.152.266.226.414.4856623.9212294 1.025613 1.8127994 1.617 2.67l.284.43c1.8-2.595 1.661-5.843 1.2-8.181-.7984584 1.7552-1.9281092 3.3398349-3.327 4.667z" />
			<path id="Shape" d="m44.589 46.194c.743573-3.58218 1.8839407-7.0703636 3.4-10.4-.3964543-1.1938539-.7266244-2.4087065-.989-3.639-2.7257254 4.1389016-3.5996812 9.2278543-2.411 14.039z" />
			<path id="Shape" d="m33.043 25.087c-2.179 1.297-5.043 3.626-5.043 6.913 0 .5522847-.4477153 1-1 1s-1-.4477153-1-1c0-3.287-2.864-5.616-5.043-6.913-.264.421-.534.835-.8 1.239-1.814 2.744-3.247 4.911-1.3 8.159.831 1.385 1.585 2.842 2.314 4.25 1.77 3.42 3.448 6.661 5.829 8.122 2.381-1.461 4.059-4.7 5.829-8.122.729-1.408 1.483-2.865 2.314-4.25 1.948-3.248.515-5.415-1.3-8.159-.266-.404-.536-.818-.8-1.239zm-9.488 8.745c-.2206502.1472282-.4907558.2007572-.7508787.1488077-.2601229-.0519496-.488948-.2051208-.6361213-.4258077l-2-3c-.306518-.4595009-.1825009-1.080482.277-1.387s1.080482-.1825009 1.387.277l2 3c.1472282.2206502.2007572.4907558.1488077.7508787-.0519496.2601229-.2051208.488948-.4258077.6361213zm2.445 8.168c0 .5522847-.4477153 1-1 1s-1-.4477153-1-1v-1c0-.5522847.4477153-1 1-1s1 .4477153 1 1zm4 0c0 .5522847-.4477153 1-1 1s-1-.4477153-1-1v-1c0-.5522847.4477153-1 1-1s1 .4477153 1 1zm3.832-11.445-2 3c-.3065181.4595009-.9274991.583518-1.387.2769999-.4595009-.306518-.583518-.927499-.277-1.3869999l2-3c.1982824-.297245.5400812-.4661282.8966441-.4430331s.6737195.2346599.832.555c.1582805.32034.1336383.7007881-.0646441.9980331z" />
			<path id="Shape" d="m53.28 24.21c-.444-3.2-1-7.187-5.124-13.673-4.19-6.586-9.42-9.056-12.778-9.982-.3765064-.10109393-.7774401.0258294-1.02718.3251737s-.3027538.71653362-.13582 1.0688263c1.3034675 2.47393678 3.1536569 4.61824131 5.41 6.27 3.551 2.842 5.171 4.138 9.27 12.334 1.2011739 2.6082066 2.8898047 4.9627859 4.975 6.937-.26439-1.0800627-.4614361-2.1755052-.59-3.28z" />
			<path id="Shape" d="m46.574 20.4c-3.5-6.852-4.945-8.015-8.2-10.618-.254-.2-.49-.4-.725-.6-2.3283311 3.6255798-6.3411772 5.8176178-10.65 5.8176178s-8.3216689-2.192038-10.65-5.8176178c-.235.2-.471.4-.724.6-3.255 2.6-4.7 3.767-8.2 10.62.40292027 2.9487922.41603284 5.9377861.039 8.89 1.92143371 2.5140106 3.2850513 5.4086299 4 8.491 4.187 7.174 11.349 11.584 15.536 13.681 4.971-2.494 11.531-6.842 15.525-13.664.7125137-3.0887021 2.0762417-5.9896925 4-8.509-.371681-2.9531092-.3552077-5.9421669.049-8.891zm-9.674 7.066c1.5733859 2.4570637 1.5561543 5.6092846-.044 8.049-.8 1.331-1.537 2.758-2.252 4.139-2.033 3.928-3.953 7.638-7.158 9.241-.2814108.1406214-.6125892.1406214-.894 0-3.205-1.6-5.125-5.313-7.158-9.241-.715-1.381-1.454-2.808-2.252-4.139-1.6001543-2.4397154-1.6173859-5.5919363-.044-8.049-4.621-5.514-1.169-13.522-1.013-13.872.1754398-.4074748.6016293-.6473855 1.041-.586.4383474.0559604.7879918.3930014.86.829.4342796 2.4785863 1.625517 4.7618496 3.41 6.536 1.594-2.273 3.409-3.373 5.604-3.373s4.01 1.095 5.6 3.373c1.784483-1.7741504 2.9757204-4.0574137 3.41-6.536.0723246-.4355304.4217016-.7720941.8596292-.8281028.4379277-.0560086.8607629.1817932 1.0403708.5851028.16.35 3.612 8.358-1.01 13.872z" />
		</g>
	</g>
</svg>
