<?xml version="1.0" standalone="no"?>
<!DOCTYPE svg PUBLIC "-//W3C//DTD SVG 20010904//EN"
 "http://www.w3.org/TR/2001/REC-SVG-20010904/DTD/svg10.dtd">
<svg version="1.0" xmlns="http://www.w3.org/2000/svg"
 width="520.000000pt" height="520.000000pt" viewBox="0 0 520.000000 520.000000"
 preserveAspectRatio="xMidYMid meet">

<g transform="translate(0.000000,520.000000) scale(0.100000,-0.100000)"
fill="#fff" stroke="none">
<path d="M2463 4043 c-9 -3 -10 -18 -6 -50 6 -44 5 -45 -15 -34 -70 37 -118
-86 -61 -155 13 -15 75 -19 83 -5 3 4 17 6 32 3 l26 -5 -7 79 c-16 166 -20
180 -52 167z m-12 -123 c34 -19 22 -90 -16 -90 -34 0 -50 61 -23 88 15 15 15
15 39 2z"/>
<path d="M2888 3985 c-38 -21 -58 -64 -58 -123 0 -66 30 -95 98 -96 40 -1 47
2 50 20 2 17 -2 20 -31 16 -41 -5 -67 18 -67 58 0 75 47 117 96 85 22 -14 28
-15 35 -4 23 38 -74 72 -123 44z"/>
<path d="M2605 3971 c-34 -14 -48 -39 -49 -85 -1 -64 23 -88 88 -84 38 2 52 7
54 20 3 14 -3 16 -32 11 -22 -3 -42 -1 -51 7 -29 24 -17 36 38 35 49 0 52 2
55 26 6 49 -55 90 -103 70z m58 -45 c8 -19 -1 -26 -35 -26 -30 0 -31 1 -22 24
8 20 50 21 57 2z"/>
<path d="M2026 3927 c-16 -11 -18 -25 -15 -95 2 -45 3 -82 2 -82 -1 0 -25 25
-54 55 -53 57 -80 66 -113 42 -16 -12 -14 -19 24 -108 38 -86 44 -95 65 -91
l24 4 -35 76 c-19 41 -33 77 -30 79 2 2 30 -26 61 -62 42 -48 64 -65 79 -63
20 3 21 8 18 103 l-2 100 37 -82 c20 -46 39 -83 42 -83 3 0 12 4 20 9 12 8 8
26 -29 110 -45 104 -57 115 -94 88z"/>
<path d="M2215 3924 c-22 -8 -41 -14 -42 -14 -2 0 -3 -9 -3 -21 0 -11 3 -19 8
-17 4 2 20 10 35 18 24 12 30 12 44 -3 15 -15 13 -17 -26 -33 -49 -19 -64 -54
-36 -84 21 -23 53 -26 80 -6 10 7 27 11 38 8 18 -5 19 -2 14 36 -11 69 -31
115 -52 122 -12 5 -38 2 -60 -6z m65 -104 c0 -26 -34 -44 -49 -26 -9 11 -7 18
11 30 30 21 38 20 38 -4z"/>
<path d="M3201 3901 c-12 -21 -5 -31 20 -31 24 0 33 18 19 35 -17 20 -27 19
-39 -4z"/>
<path d="M3047 3893 c-2 -5 -14 -39 -27 -77 -19 -57 -20 -70 -9 -77 23 -14 26
-11 45 44 17 46 23 52 51 55 34 3 52 29 28 39 -9 3 -24 3 -35 0 -13 -3 -20 0
-20 9 0 15 -26 20 -33 7z"/>
<path d="M3155 3793 c-14 -31 -28 -68 -32 -81 -5 -20 -2 -23 17 -20 16 2 29
20 51 71 16 38 26 73 23 78 -14 23 -36 4 -59 -48z"/>
<path d="M3243 3765 c-29 -29 -34 -40 -31 -72 3 -35 6 -38 36 -41 20 -2 32 -9
32 -18 0 -19 26 -18 34 2 9 23 8 24 -18 24 -38 0 -50 23 -31 60 22 42 41 47
70 20 23 -21 25 -22 31 -5 9 22 -36 65 -68 65 -11 0 -36 -16 -55 -35z"/>
<path d="M3405 3718 c-93 -134 -89 -125 -66 -137 17 -9 22 -7 38 19 25 43 37
37 30 -14 -5 -34 -3 -47 12 -60 24 -22 31 -12 31 50 l0 52 40 7 c44 7 51 19
21 35 -13 7 -28 7 -46 0 -46 -17 -48 -11 -10 40 35 48 41 80 13 80 -7 0 -35
-32 -63 -72z"/>
<path d="M1666 3658 c-9 -12 -16 -28 -16 -35 0 -7 -11 -13 -23 -13 -25 0 -57
-28 -57 -48 0 -7 -9 -12 -20 -12 -11 0 -20 -6 -20 -12 0 -16 98 -128 111 -128
23 0 18 32 -10 67 -63 77 -22 117 43 42 23 -27 40 -39 51 -36 23 9 18 26 -19
68 -24 26 -33 44 -29 58 9 34 38 24 78 -24 30 -37 40 -44 51 -34 21 17 18 22
-32 78 -51 57 -83 65 -108 29z"/>
<path d="M3529 3595 c-33 -18 -59 -57 -59 -89 0 -29 53 -86 81 -86 27 0 24 25
-5 38 -27 12 -43 49 -29 63 6 6 26 -5 50 -26 l41 -35 21 26 c34 43 23 82 -29
109 -35 18 -38 18 -71 0z m75 -47 c7 -11 7 -21 1 -27 -13 -12 -59 24 -50 39 9
15 36 9 49 -12z"/>
<path d="M2511 3543 c8 -14 0 -47 -41 -153 -28 -74 -60 -142 -71 -152 -10 -9
-19 -18 -19 -20 0 -1 25 -3 55 -3 48 0 54 2 49 18 -3 10 0 32 6 48 12 28 15
29 75 29 57 0 63 -2 73 -25 15 -32 15 -55 1 -55 -5 0 -7 -5 -4 -10 6 -9 175
-10 175 -2 0 2 -9 11 -19 20 -11 10 -45 86 -77 170 l-58 152 -78 0 c-72 0 -77
-1 -67 -17z m94 -170 c5 -20 3 -23 -22 -24 -15 0 -36 -2 -45 -4 -23 -4 -23 1
4 71 l22 58 17 -40 c9 -21 20 -49 24 -61z"/>
<path d="M3726 3503 c-4 -5 -18 -8 -29 -8 -14 0 -22 -6 -22 -17 0 -10 -17 -35
-38 -56 -20 -21 -37 -47 -37 -59 0 -26 25 -47 46 -39 14 5 14 9 3 22 -11 14
-8 21 25 51 35 33 38 34 51 16 19 -25 42 -4 26 25 -8 15 -7 23 4 32 12 10 13
16 4 26 -13 16 -22 17 -33 7z"/>
<path d="M1436 3429 c-42 -49 -28 -107 31 -138 35 -18 63 -13 94 18 39 40 39
80 -2 120 -42 42 -88 42 -123 0z m88 -30 c31 -25 34 -54 5 -70 -41 -21 -97 42
-69 76 17 20 33 19 64 -6z"/>
<path d="M3798 3282 l-98 -56 29 -51 c31 -54 61 -72 105 -61 19 5 28 15 32 35
5 22 10 27 25 24 26 -7 59 24 59 55 0 20 -44 114 -53 111 -1 0 -46 -25 -99
-57z m106 -18 c16 -42 -13 -67 -45 -38 -24 22 -24 29 4 42 30 15 34 14 41 -4z
m-80 -50 c18 -47 -11 -79 -45 -48 -24 21 -24 40 -1 53 25 15 39 13 46 -5z"/>
<path d="M1350 3309 c0 -7 -9 -9 -24 -5 -27 7 -63 -23 -38 -32 7 -2 18 -15 23
-29 6 -17 14 -23 25 -19 9 4 36 -5 60 -19 23 -14 49 -25 57 -25 18 0 47 32 47
52 0 21 -27 31 -34 12 -8 -20 -22 -18 -61 9 -24 16 -31 27 -25 37 5 8 6 18 4
22 -8 12 -34 10 -34 -3z"/>
<path d="M1278 3183 c-27 -31 -32 -63 -12 -84 22 -25 56 -24 79 1 10 11 24 20
32 20 18 0 17 -35 -2 -50 -21 -17 -19 -30 5 -30 29 0 57 61 43 93 -16 35 -46
39 -87 11 -19 -13 -37 -24 -40 -24 -12 0 -5 38 9 50 14 12 12 30 -4 30 -4 0
-15 -8 -23 -17z"/>
<path d="M2705 3101 c-40 -4 -61 -11 -63 -20 -3 -13 -110 -141 -118 -141 -2 0
-4 29 -4 64 0 45 5 69 16 80 14 15 7 16 -78 16 -68 -1 -88 -3 -75 -11 15 -9
17 -27 17 -151 0 -118 -3 -145 -17 -160 -15 -17 -13 -18 75 -18 51 0 92 3 92
6 0 3 -7 12 -15 20 -22 22 -18 55 11 89 l25 30 27 -35 c76 -98 84 -104 158
-108 l69 -4 -26 28 c-14 16 -55 68 -92 115 l-66 86 45 51 c25 29 52 52 59 52
8 0 17 5 20 10 3 6 5 9 3 8 -2 -1 -30 -4 -63 -7z"/>
<path d="M3917 3104 c-3 -4 3 -19 15 -34 20 -28 19 -60 -1 -60 -6 0 -17 13
-26 30 -21 40 -45 52 -76 37 -31 -16 -37 -59 -12 -84 10 -10 17 -26 15 -35 -5
-27 12 -28 69 -7 72 28 92 46 85 81 -11 53 -48 93 -69 72z m-39 -76 c20 -20
14 -40 -10 -36 -15 2 -24 11 -26 26 -4 24 16 30 36 10z"/>
<path d="M1210 3031 c0 -13 15 -24 53 -37 39 -15 53 -25 55 -42 5 -32 -19 -37
-79 -17 -43 15 -53 15 -60 4 -15 -24 -10 -28 60 -49 54 -17 74 -19 90 -10 22
11 37 52 26 70 -4 6 1 17 11 25 25 18 14 28 -65 54 -79 26 -91 26 -91 2z"/>
<path d="M3980 2936 c0 -8 -24 -22 -57 -32 -56 -18 -58 -20 -58 -54 0 -28 4
-36 22 -38 17 -3 20 1 16 16 -6 24 2 29 55 38 36 6 42 4 42 -10 0 -11 6 -16
18 -14 11 2 16 11 14 24 -2 14 4 23 17 27 14 3 18 11 14 26 -4 15 -11 20 -23
16 -10 -3 -21 -1 -25 5 -9 15 -35 12 -35 -4z"/>
<path d="M1101 2851 c-18 -32 -13 -96 9 -124 29 -36 106 -53 153 -34 43 18 57
42 57 96 0 30 -5 43 -20 51 -22 12 -23 11 -20 -41 1 -22 -5 -41 -15 -49 -22
-19 -79 -16 -111 5 -26 16 -29 40 -13 94 6 23 -28 25 -40 2z"/>
<path d="M3972 2787 c-6 -7 -15 -25 -21 -40 -6 -15 -18 -27 -27 -27 -13 0 -15
8 -12 35 3 28 1 35 -11 33 -18 -4 -26 -38 -17 -74 14 -56 88 -53 101 5 4 17
11 34 17 37 15 9 28 -17 21 -43 -6 -25 6 -30 25 -11 29 29 -1 98 -42 98 -13 0
-28 -6 -34 -13z"/>
<path d="M2393 2640 c15 -10 17 -29 17 -160 0 -131 -2 -150 -17 -160 -13 -8
21 -10 132 -8 144 3 152 4 198 31 118 69 114 216 -8 277 -45 23 -63 25 -195
28 -107 2 -140 0 -127 -8z m213 -35 c40 -17 64 -63 64 -125 0 -62 -24 -108
-64 -125 -67 -28 -66 -30 -66 125 0 155 -1 153 66 125z"/>
<path d="M2206 2328 c11 -18 376 -551 384 -561 5 -6 386 534 398 565 2 5 -12
8 -32 6 -35 -2 -40 -8 -187 -223 -83 -121 -157 -226 -163 -233 -10 -10 -46 37
-175 223 -159 231 -162 235 -197 235 -25 0 -33 -3 -28 -12z"/>
<path d="M2117 2153 c11 -15 120 -174 243 -353 122 -179 226 -329 230 -333 6
-6 435 604 494 701 5 9 -4 12 -38 12 l-45 0 -202 -294 -202 -295 -102 147
c-56 81 -146 212 -201 292 l-99 145 -49 3 -48 3 19 -28z"/>
<path d="M2016 1958 c31 -46 174 -253 317 -461 211 -307 262 -376 273 -365 10
11 594 857 618 896 5 9 -7 12 -51 12 l-58 0 -255 -371 c-140 -204 -258 -373
-261 -375 -3 -2 -122 165 -264 371 l-258 375 -59 0 -59 0 57 -82z"/>
</g>
</svg>
