<svg id="Capa_1" enable-background="new 0 0 512.003 512.003" height="512" viewBox="0 0 512.003 512.003" width="512" xmlns="http://www.w3.org/2000/svg">
	<g fill="currentColor">
		<path d="m509.84 362.225-74.39-75.41 53.45-55.35c15.41-15.97 14.95-41.5-1.01-56.91-7.03-6.79-15.91-10.5-24.97-11.17 4.92-6.94 7.5-15.24 7.35-23.92-.19-10.75-4.55-20.78-12.29-28.25-7.66-7.39-17.51-11.14-27.4-11.27 2.46-5.39 3.7-11.3 3.59-17.39-.19-10.75-4.55-20.79-12.28-28.25-12.76-12.32-31.61-14.51-46.54-6.76-.57-10.16-4.87-19.58-12.23-26.69-7.97-7.69-18.94-11.84-30.11-11.39-8.64.36-16.58 3.37-22.89 8.61l-32.69-15.43c-10.52-4.96-23.13-2.79-31.39 5.39l-31.06 30.79-9.18-9.51c-15.42-15.96-40.95-16.41-56.92-.99-7.36 7.11-11.66 16.54-12.22 26.7-14.93-7.76-33.79-5.58-46.55 6.74-7.73 7.47-12.09 17.5-12.28 28.25-.11 6.1 1.14 12.01 3.6 17.4-9.89.14-19.75 3.87-27.41 11.27-7.74 7.47-12.1 17.5-12.29 28.25-.15 8.67 2.43 16.97 7.36 23.92-9.06.67-17.95 4.38-24.98 11.17-15.96 15.41-16.42 40.94-1.01 56.91l37.83 39.17c5.37 5.56 11.97 9.23 18.96 11.01-2.04 2.66-4.19 5.22-6.23 7.3l-71.24 65.56c-3.05 2.81-3.24 7.55-.44 10.6 1.48 1.61 3.5 2.42 5.52 2.42 1.82 0 3.64-.66 5.08-1.98l71.38-65.69c.09-.09.18-.17.27-.26 5.07-5.16 10.26-12.19 13.75-17.51 7.25-1.48 14.17-4.95 19.88-10.46 7.74-7.47 12.1-17.51 12.29-28.26.04-2.44-.14-4.84-.52-7.2 2.24.39 4.51.59 6.78.59 10.07 0 20.16-3.75 27.96-11.28 7.73-7.47 12.1-17.5 12.28-28.25.04-2.06-.08-4.1-.35-6.1 2.59.51 5.22.77 7.85.77 10.07 0 20.16-3.75 27.96-11.28 7.73-7.47 12.1-17.5 12.29-28.25.03-2.25-.12-4.47-.44-6.65 2.42.45 4.86.68 7.32.68 10.07 0 20.15-3.75 27.95-11.28 7.74-7.47 12.1-17.5 12.29-28.25.16-9.55-2.99-18.64-8.93-25.98 1.38-1.15 2.71-2.37 3.98-3.69.32-.34 50.4-52.35 50.66-52.65 4.05-4.61 9.87-7.29 16.39-7.56 7.1-.28 14.05 2.33 19.08 7.19 4.85 4.69 7.59 10.98 7.71 17.73.11 6.74-2.4 13.13-7.09 17.98-.47.53-9.46 9.7-9.59 10.04-2.37 3.24-1.77 7.77 1.37 10.28 3.02 2.42 7.39 2.14 10.08-.64l20.58-21.32c9.67-10.01 25.69-10.3 35.71-.62 4.85 4.68 7.59 10.98 7.7 17.72.12 6.74-2.39 13.13-7.09 18-5.98 6.24-17.13 17.74-23.11 24.07-.77.8-1.32 1.73-1.66 2.71-1.01 2.88-.17 6.2 2.3 8.25 3.08 2.54 7.61 2.23 10.31-.71l13.01-13.55c9.75-8.98 24.98-8.9 34.63.42 4.86 4.69 7.59 10.98 7.71 17.73.12 6.74-2.4 13.13-7.08 17.98 0 0-15.53 16.08-17.08 17.68-3.06 2.94-2.98 8.05.16 10.88 3.45 3.25 8.71 2.28 11.41-1.22 9.75-9.11 25.09-9.08 34.79.29 10.02 9.67 10.3 25.69.64 35.7l-91.47 94.72c-1.03 1.06-2.1 2.14-3.18 3.18-2.98 2.88-3.05 7.63-.17 10.61 1.47 1.52 3.43 2.28 5.39 2.28 1.88 0 3.76-.7 5.22-2.11 1.04-.85 29.22-30.18 31.12-32.11l74.14 75.15c1.47 1.48 3.4 2.23 5.34 2.23 1.9 0 3.81-.72 5.27-2.16 2.95-2.91 2.98-7.66.07-10.61zm-402.4-93.92c-10.02 9.67-26.05 9.4-35.72-.62l-37.83-39.17c-9.66-10.02-9.38-26.03.64-35.7 10.02-9.68 26.03-9.4 35.71.61.84.86 37.01 38.31 37.82 39.16 4.69 4.85 7.21 11.24 7.09 17.99-.12 6.74-2.86 13.04-7.71 17.73zm46.51-46.15c-10.02 9.67-26.04 9.39-35.71-.62-11.71-12.12-43.18-44.71-54.43-56.36-4.68-4.85-7.2-11.24-7.08-17.98s2.85-13.04 7.71-17.72c10.01-9.67 26.02-9.4 35.69.61l54.45 56.38c4.68 4.85 7.19 11.23 7.08 17.97-.12 6.74-2.86 13.03-7.71 17.72zm94.86-90.36c-10.02 9.67-26.03 9.39-35.71-.62l-15.39-15.94c-2.88-2.98-7.63-3.07-10.61-.19-2.97 2.88-3.06 7.63-.18 10.61l15.39 15.94c4.69 4.85 7.21 11.23 7.09 17.98-.12 6.74-2.86 13.04-7.71 17.72-10.02 9.67-26.04 9.39-35.71-.62-.74-.77-65.33-67.65-66.07-68.42-4.69-4.85-7.2-11.23-7.08-17.98.11-6.74 2.85-13.03 7.7-17.72 10.02-9.67 26.04-9.39 35.71.62 6.45 6.68 20 20.71 26.51 27.45 2.88 2.98 7.63 3.07 10.61.19s3.06-7.63.18-10.61l-14.86-15.39c-4.58-4.74-7.09-10.95-7.09-17.52v-.46c.12-6.74 2.86-13.04 7.71-17.72 10.02-9.67 26.03-9.4 35.71.62l9.31 9.64-6.35 6.3c-8 7.92-8.14 20.95-.32 29.05 9.1 9.43 21.33 14.62 34.43 14.62h.04c6.04-.01 11.89-1.13 17.33-3.24 4.67 4.85 7.19 11.23 7.07 17.97s-2.86 13.04-7.71 17.72zm6.95-57.53c-6.24 6.49-14.64 10.07-23.65 10.08h-.03c-8.99 0-17.39-3.57-23.64-10.04-2.15-2.22-2.11-5.8.08-7.97l48.08-47.64c2.43-2.42 5.7-3.69 9-3.69 1.84 0 3.7.39 5.43 1.21l27.92 13.17z" />
		<path d="m367.02 509.925c-1.45 1.38-3.31 2.07-5.16 2.07-1.99 0-3.97-.78-5.44-2.33 0 0-97.47-102.62-97.22-102.06-1.2 1.17-2.38 2.36-3.54 3.57l-92.68 98.46c-1.48 1.57-3.47 2.36-5.47 2.36-1.84 0-3.69-.68-5.14-2.04-3.01-2.84-3.16-7.58-.32-10.6l92.74-98.52c22.32-23.24 50.45-40.13 81.39-48.89 10.89-3.08 21.38-7.53 31.18-13.23 3.57-2.08 8.17-.87 10.25 2.71s.87 8.18-2.71 10.26c-10.88 6.33-22.53 11.27-34.64 14.7-21.92 6.2-42.29 16.88-59.85 31.21 1.04 1.03 96.88 101.73 96.88 101.73 2.85 3 2.73 7.75-.27 10.6z" />
	</g>
</svg>
