<svg id="Capa_1" enable-background="new 0 0 512.001 512.001" height="512" viewBox="0 0 512.001 512.001" width="512" xmlns="http://www.w3.org/2000/svg">
	<g fill="currentColor" stroke="currentColor">
		<path d="m146.333 388.966v-35.678l-60.57-30.285-23.546-129.606-62.217-19.16s-.58 51.088 36.903 95.975l-31.986 9.679c.001 0 38.334 103.667 141.416 109.075z" />
		<path d="m507.083 279.891-31.986-9.679c37.484-44.887 36.903-95.975 36.903-95.975l-62.217 19.16-23.546 129.606-60.57 30.285v35.677c103.068-5.408 141.416-109.074 141.416-109.074z" />
		<path d="m322.317 41.632c28.781 6.834 53.838 17.226 74.008 27.634 16.166-33.742 45.414-69.265 45.414-69.265-61.551 0-98.858 22.537-119.422 41.631z" />
		<path d="m115.676 69.266c20.17-10.408 45.227-20.8 74.008-27.634-20.564-19.094-57.871-41.631-119.422-41.631 0 0 29.248 35.523 45.414 69.265z" />
		<path d="m115.288 142.705c15.333 16.555 36.089 27.367 58.443 30.446l4.217.581c30.446 4.193 57.977 19.043 78.052 41.624 20.075-22.581 47.605-37.431 78.051-41.624l4.22-.581c22.353-3.079 43.109-13.891 58.442-30.446l22.618-24.419c-24.69-17.642-85.626-54.551-163.33-54.551s-138.64 36.909-163.33 54.551z" />
		<path d="m335.669 411.932-35.082 22.234-16.06-25.339 51.142-32.412v-41.668l63.734-31.867 26.878-147.95-7.559 8.161c-20.034 21.63-47.153 35.757-76.36 39.78l-4.219.581c-28.697 3.952-54.012 20.277-69.45 44.789l-12.692 20.151-12.692-20.151c-15.438-24.512-40.753-40.837-69.451-44.789l-4.217-.581c-29.208-4.022-56.327-18.15-76.361-39.78l-7.559-8.161 26.878 147.95 63.735 31.867v41.668l51.142 32.412-16.06 25.339-35.082-22.234v20.4c0 43.999 35.669 79.668 79.668 79.668 44 0 79.668-35.669 79.668-79.668v-20.4zm8.905-174.546 11.48 27.717-44.162 18.292-11.48-27.717zm-188.627 27.717 11.48-27.717 44.162 18.292-11.48 27.717z" />
	</g>
</svg>
